<svg width="73" height="59" viewBox="0 0 73 59" fill="none" xmlns="http://www.w3.org/2000/svg">
<path d="M5.06453 51.8356C-8.85806 36.5352 9.79026 3.66789 21.8591 0.92939C33.9609 -1.83906 61.2127 28.2418 57.3544 39.9373C53.4925 51.695 19.0164 67.1682 5.06453 51.8356Z" fill="url(#paint0_linear_2_54)"/>
<path d="M5.06453 51.8356C-8.85806 36.5352 9.79026 3.66789 21.8591 0.92939C33.9609 -1.83906 61.2127 28.2418 57.3544 39.9373C53.4925 51.695 19.0164 67.1682 5.06453 51.8356Z" fill="white" fill-opacity="0.5"/>
<path d="M27.4004 48.5721C25.7104 48.4559 24.1604 47.9997 22.7502 47.2036C21.3754 46.3766 20.2092 45.1811 19.2513 43.617C18.3289 42.0221 17.6481 40.0609 17.2088 37.7335C16.7719 35.3729 16.6628 32.602 16.8815 29.4209C17.1002 26.2398 17.5865 23.5265 18.3401 21.2811C19.0961 19.0026 20.039 17.153 21.1687 15.7325C22.3317 14.3143 23.6495 13.3062 25.1222 12.7083C26.6281 12.1127 28.226 11.873 29.9159 11.9892C31.6059 12.1054 33.1394 12.5605 34.5164 13.3543C35.8935 14.1482 37.0443 15.326 37.969 16.8878C38.896 18.4164 39.5625 20.3433 39.9687 22.6685C40.4079 24.9959 40.5181 27.7502 40.2994 30.9313C40.0806 34.1125 39.5933 36.8423 38.8373 39.1208C38.1168 41.3685 37.1905 43.2192 36.0584 44.6729C34.9264 46.1265 33.6229 47.1689 32.1479 47.7999C30.6728 48.4309 29.0904 48.6883 27.4004 48.5721ZM27.6207 44.642C28.7473 44.7195 29.7585 44.5393 30.6543 44.1015C31.55 43.6637 32.3348 42.902 33.0088 41.8163C33.6827 40.7307 34.2314 39.2869 34.655 37.4849C35.114 35.652 35.4346 33.4101 35.6169 30.7592C35.7992 28.1082 35.8038 25.8613 35.6309 24.0182C35.4603 22.1421 35.1155 20.6202 34.5965 19.4525C34.0775 18.2848 33.4043 17.4229 32.577 16.8666C31.7496 16.3103 30.7726 15.9934 29.6459 15.9159C28.5193 15.8385 27.4915 16.0175 26.5627 16.453C25.6669 16.8908 24.8655 17.6514 24.1585 18.7348C23.4845 19.8204 22.9181 21.2796 22.4591 23.1125C22.0356 24.9145 21.7326 27.141 21.5504 29.7919C21.3681 32.4428 21.3622 34.7064 21.5329 36.5826C21.7389 38.4279 22.1014 39.9343 22.6204 41.102C23.1394 42.2697 23.8126 43.1316 24.64 43.6879C25.5005 44.2465 26.4941 44.5645 27.6207 44.642Z" fill="#21201F"/>
<path d="M51.3103 29.9905L52.4109 13.9855L60.811 14.5631C64.5223 14.8183 67.3494 15.8284 69.2922 17.5934C71.2682 19.3606 72.1434 21.8845 71.9178 25.1651C71.8016 26.855 71.4031 28.2925 70.7223 29.4776C70.0747 30.6649 69.1768 31.6186 68.0286 32.3387C66.9158 33.0279 65.6001 33.5201 64.0817 33.8152C62.5654 34.0771 60.8961 34.1455 59.0736 34.0202L55.7433 33.7912L55.4528 38.0161L65.8412 38.7304L65.6019 42.2098L55.2136 41.4954L54.6325 49.9453L49.9602 49.624L50.5413 41.1741L46.4655 40.8939L46.7047 37.4145L50.7805 37.6948L51.0711 33.4699L46.9953 33.1896L47.2345 29.7103L51.3103 29.9905ZM56.8063 18.3329L55.9826 30.3118L59.3128 30.5408C61.7318 30.7071 63.6051 30.3366 64.9326 29.429C66.2956 28.4907 67.05 26.9611 67.1958 24.8404C67.3302 22.8853 66.866 21.4051 65.8032 20.3998C64.7758 19.3637 63.0194 18.7601 60.5342 18.5892L56.8063 18.3329Z" fill="#21201F"/>
<defs>
<linearGradient id="paint0_linear_2_54" x1="5.07898" y1="51.8518" x2="45.5806" y2="14.9973" gradientUnits="userSpaceOnUse">
<stop stop-color="#FF5C4D"/>
<stop offset="0.25" stop-color="#EB469F"/>
<stop offset="0.72" stop-color="#8341EF"/>
<stop offset="1" stop-color="#3F68F9"/>
</linearGradient>
</defs>
</svg>
