<svg width="84" height="68" viewBox="0 0 84 68" fill="none" xmlns="http://www.w3.org/2000/svg">
<path d="M13.9026 32.8196C13.9026 16.3925 41.8113 7.05505 50.1805 11.8967C58.5843 16.7384 58.5151 48.97 50.1805 53.7771C41.8113 58.6188 13.9026 49.2813 13.9026 32.8196Z" fill="url(#paint0_linear_2_59)"/>
<path d="M13.9026 32.8196C13.9026 16.3925 41.8113 7.05505 50.1805 11.8967C58.5843 16.7384 58.5151 48.97 50.1805 53.7771C41.8113 58.6188 13.9026 49.2813 13.9026 32.8196Z" fill="white" fill-opacity="0.5"/>
<path d="M53.3275 67.5063C49.0392 67.5063 44.6817 64.5321 44.6817 58.8604C44.6817 55.3329 46.5838 52.428 49.4888 51.0446L41.085 19.4009C36.4508 19.3317 32.5429 19.4354 28.9117 19.7121L28.635 16.2538C32.7158 15.9425 37.0733 15.8388 42.4338 15.9425L43.7479 15.9771L52.8088 50.2146C57.8579 49.9725 61.9388 53.7421 61.9388 58.8604C61.9733 63.8059 58.2383 67.5063 53.3275 67.5063ZM53.3275 53.6729C50.3188 53.6729 48.14 55.8517 48.14 58.8604C48.14 62.6992 50.9413 64.0479 53.3275 64.0479C56.3363 64.0479 58.515 61.8692 58.515 58.8604C58.515 55.8517 56.3363 53.6729 53.3275 53.6729ZM8.64583 67.5063C4.3575 67.5063 0 64.5321 0 58.8604C0 53.915 3.70042 50.2146 8.64583 50.2146C12.9687 50.2146 16.3579 53.085 17.1187 57.1313H27.0788C31.0558 57.1313 32.9233 56.3704 35.7937 53.6729C38.2492 51.3213 40.6008 48.8313 42.7796 46.2375L45.4425 48.4509C43.1946 51.1484 40.7392 53.7421 38.18 56.1629C34.6525 59.5175 31.955 60.5896 27.0788 60.5896H17.1533C16.3925 64.6359 13.0033 67.5063 8.64583 67.5063ZM8.64583 53.6729C5.63708 53.6729 3.45833 55.8517 3.45833 58.8604C3.45833 62.6992 6.25958 64.0479 8.64583 64.0479C11.6546 64.0479 13.8333 61.8692 13.8333 58.8604C13.8333 55.8517 11.6546 53.6729 8.64583 53.6729ZM52.3937 24.035H50.1458C48.9008 24.035 47.8633 23.0321 47.8633 21.7525C47.8633 20.5075 48.8662 19.5046 50.1458 19.5046H52.3937V24.035Z" fill="#21201F"/>
<path d="M67.6104 16.4158L57.1782 5.53254L58.9042 3.74031L69.3618 14.6236L67.6104 16.4158ZM58.9042 16.4158L57.1782 14.6236L67.6612 3.74031L69.3618 5.53254L58.9042 16.4158Z" fill="#21201F"/>
<path d="M74.3519 10.5975V7.79231H76.6871C77.2624 7.79231 77.7616 7.69707 78.1846 7.50659C78.6077 7.2988 78.9377 7.00442 79.1746 6.62346C79.4115 6.22519 79.5299 5.74899 79.5299 5.19487C79.5299 4.67538 79.4115 4.23382 79.1746 3.87018C78.9546 3.50654 78.6246 3.22948 78.1846 3.039C77.7447 2.8312 77.2032 2.72731 76.5602 2.72731C75.7648 2.72731 75.0034 2.87449 74.2757 3.16887C73.565 3.44593 72.8035 3.90481 71.9913 4.54551V1.53249C72.4651 1.18616 72.9558 0.900444 73.4635 0.675333C73.9711 0.450221 74.5211 0.285717 75.1133 0.18182C75.7056 0.0606066 76.3402 0 77.017 0C78.2016 0 79.2253 0.207795 80.0883 0.623385C80.9513 1.03897 81.6197 1.61907 82.0936 2.36367C82.5674 3.10827 82.8043 3.96542 82.8043 4.93513C82.8043 5.55851 82.6943 6.12129 82.4743 6.62346C82.2543 7.12563 81.9666 7.54988 81.6113 7.89621C81.2559 8.24253 80.8498 8.51959 80.3929 8.72739C79.936 8.93518 79.4707 9.06505 78.9969 9.117V9.0131C79.5722 9.06505 80.1222 9.20358 80.6467 9.42869C81.1882 9.63649 81.6705 9.93086 82.0936 10.3118C82.5166 10.6928 82.8466 11.1517 83.0835 11.6885C83.3373 12.2253 83.4642 12.84 83.4642 13.5326C83.4642 14.6582 83.185 15.6452 82.6266 16.4937C82.0682 17.3249 81.2898 17.9743 80.2914 18.4418C79.293 18.892 78.1254 19.1171 76.7886 19.1171C76.1117 19.1171 75.4602 19.0565 74.8341 18.9353C74.208 18.8314 73.6242 18.6669 73.0827 18.4418C72.5412 18.1994 72.0421 17.9137 71.5852 17.5846V14.5716C72.3805 15.195 73.1758 15.6539 73.9711 15.9483C74.7664 16.2426 75.621 16.3898 76.5348 16.3898C77.3132 16.3898 77.9647 16.2686 78.4892 16.0262C79.0138 15.7838 79.403 15.4461 79.6568 15.0132C79.9276 14.563 80.063 14.0262 80.063 13.4028C80.063 12.7794 79.936 12.2599 79.6822 11.8443C79.4284 11.4287 79.0476 11.117 78.54 10.9092C78.0323 10.7014 77.3809 10.5975 76.5855 10.5975H74.3519Z" fill="#21201F"/>
<defs>
<linearGradient id="paint0_linear_2_59" x1="13.9026" y1="32.8368" x2="56.4574" y2="32.8368" gradientUnits="userSpaceOnUse">
<stop stop-color="#FF5C4D"/>
<stop offset="0.25" stop-color="#EB469F"/>
<stop offset="0.72" stop-color="#8341EF"/>
<stop offset="1" stop-color="#3F68F9"/>
</linearGradient>
</defs>
</svg>
