<svg width="83" height="83" viewBox="0 0 83 83" fill="none" xmlns="http://www.w3.org/2000/svg">
<path d="M11.6919 50.1964C6.03863 32.9173 36.5269 12.1287 48.6324 25.0083C56.6378 33.5238 56.0449 53.9339 44.4389 61.8476C32.8329 69.7612 15.429 61.6222 11.6919 50.1964Z" fill="url(#paint0_linear_2_66)"/>
<path d="M11.6919 50.1964C6.03863 32.9173 36.5269 12.1287 48.6324 25.0083C56.6378 33.5238 56.0449 53.9339 44.4389 61.8476C32.8329 69.7612 15.429 61.6222 11.6919 50.1964Z" fill="white" fill-opacity="0.5"/>
<path d="M45.3291 67.8809C32.5913 68.8639 23.0001 60.6469 22.0171 47.9091C21.0341 35.1712 29.251 25.58 41.9889 24.597C47.0593 24.2057 51.7424 25.2439 55.5934 27.5903C61.2736 31.0707 64.7236 37.0869 65.3009 44.5688C66.2839 57.3066 58.067 66.8979 45.3291 67.8809ZM40.6864 27.8698C30.5029 29.3088 24.2928 37.0968 25.1088 47.6705C25.9653 58.7697 33.9913 65.6457 45.0905 64.7892C56.1898 63.9326 63.0658 55.9066 62.2092 44.8074C61.7106 38.3457 58.7911 33.1594 53.9625 30.2353C51.0582 28.469 47.5691 27.5875 43.7781 27.6312L45.4601 49.4278L31.3311 50.5181L31.0758 47.21L42.1132 46.3582L40.6864 27.8698ZM66.1066 32.4394L64.3246 29.9022L68.4264 27.0354L70.2084 29.5725L66.1066 32.4394ZM59.448 25.1468L56.86 23.4494L61.8739 15.8781L64.4619 17.5755L59.448 25.1468ZM49.1513 20.6853L46.0523 20.4269C46.1021 19.8632 45.907 19.3495 45.436 18.8883C43.7494 17.1835 39.05 17.5461 37.6449 19.4895C37.2811 20.0152 37.1671 20.5527 37.3004 21.0712L34.2778 21.802C33.9183 20.368 34.239 18.8815 35.1401 17.6612C36.3764 15.9486 38.6521 14.8088 41.1873 14.6132C43.7534 14.4151 46.1462 15.1946 47.6306 16.6973C48.7415 17.7934 49.2865 19.2131 49.1513 20.6853Z" fill="#21201F"/>
<defs>
<linearGradient id="paint0_linear_2_66" x1="52.7557" y1="31.2615" x2="13.6578" y2="54.2842" gradientUnits="userSpaceOnUse">
<stop stop-color="#FF5C4D"/>
<stop offset="0.25" stop-color="#EB469F"/>
<stop offset="0.72" stop-color="#8341EF"/>
<stop offset="1" stop-color="#3F68F9"/>
</linearGradient>
</defs>
</svg>
