<svg width="83" height="83" viewBox="0 0 83 83" fill="none" xmlns="http://www.w3.org/2000/svg">
<path d="M0.859306 53.5427C-6.16149 30.1404 31.7016 1.98502 46.7354 19.4287C56.6772 30.9618 55.941 58.6047 41.5275 69.3227C27.1141 80.0407 5.50028 69.0175 0.859306 53.5427Z" fill="url(#paint0_linear_2_71)"/>
<path d="M0.859306 53.5427C-6.16149 30.1404 31.7016 1.98502 46.7354 19.4287C56.6772 30.9618 55.941 58.6047 41.5275 69.3227C27.1141 80.0407 5.50028 69.0175 0.859306 53.5427Z" fill="white" fill-opacity="0.5"/>
<path d="M22.8015 40.8173C22.4291 36.5607 25.5779 32.8081 29.8345 32.4356L60.1786 29.7809C64.4352 29.4085 68.1878 32.5573 68.5602 36.8139L69.4198 46.6383C69.7922 50.895 66.6434 54.6476 62.3867 55.02L32.0427 57.6748C27.786 58.0472 24.0334 54.8984 23.661 50.6417L22.8015 40.8173Z" stroke="#21201F" stroke-width="3.50169"/>
<defs>
<linearGradient id="paint0_linear_2_71" x1="51.8561" y1="27.8978" x2="1.22539" y2="55.2356" gradientUnits="userSpaceOnUse">
<stop stop-color="#FF5C4D"/>
<stop offset="0.25" stop-color="#EB469F"/>
<stop offset="0.72" stop-color="#8341EF"/>
<stop offset="1" stop-color="#3F68F9"/>
</linearGradient>
</defs>
</svg>
