<svg width="176" height="52" viewBox="0 0 176 52" fill="none" xmlns="http://www.w3.org/2000/svg">
<g id="Yandex Go Ru black">
<g id="Go">
<path id="black" d="M139.016 0.935425H158.478C163.125 0.935909 167.581 2.78156 170.867 6.06646C174.153 9.35135 176 13.8065 176 18.452V33.5492C176 35.8495 175.547 38.1272 174.666 40.2523C173.786 42.3774 172.495 44.3083 170.868 45.9347C169.241 47.5611 167.309 48.8512 165.183 49.7313C163.057 50.6114 160.779 51.0643 158.478 51.064H139.216C136.915 51.0643 134.637 50.6114 132.511 49.7313C130.385 48.8512 128.454 47.5611 126.826 45.9347C125.199 44.3083 123.909 42.3774 123.028 40.2523C122.147 38.1272 121.694 35.8495 121.694 33.5492V18.452C121.694 8.77618 129.336 0.935425 139.016 0.935425Z" fill="#21201F"/>
<g id="Go_2">
<path d="M143.778 29.2781V28.4272H138.652V24.6401H148.646V29.1448C148.646 36.2351 145.259 40.3545 138.853 40.3545C132.247 40.3545 128.41 35.1505 128.41 25.9749C128.41 17.0276 132.597 11.5497 140.279 11.5497C143.181 11.5497 145.684 12.3184 147.052 13.3191V17.2175C145.087 16.0002 142.824 15.3476 140.513 15.3313C135.475 15.3313 133.339 18.7513 133.339 25.9749C133.339 32.9812 135.108 36.5656 138.944 36.5656C142.609 36.5839 143.778 33.7481 143.778 29.2781Z" fill="white"/>
<path d="M169.371 29.8113C169.371 36.6185 165.701 40.3709 160.423 40.3709C155.146 40.3709 151.476 36.6185 151.476 29.8624C151.476 23.0552 155.146 19.3028 160.423 19.3028C165.701 19.3028 169.371 23.0387 169.371 29.8113ZM164.415 29.8113C164.415 25.1404 163.08 23.0899 160.429 23.0899C157.778 23.0899 156.441 25.1404 156.441 29.8624C156.441 34.5333 157.776 36.5857 160.429 36.5857C163.082 36.5857 164.415 34.5168 164.415 29.8113Z" fill="white"/>
</g>
</g>
<path id="yandex" d="M13.746 15.7503H11.5548C7.57416 15.7503 5.47794 17.768 5.47794 20.7535C5.47794 24.1407 6.92776 25.7092 9.91507 27.7269L12.3674 29.3794L5.27708 39.9701H0L6.35623 30.4951C2.68602 27.8767 0.633615 25.3422 0.633615 21.0219C0.633615 15.617 4.38235 11.9633 11.5037 11.9633H18.5921V39.9719H13.7295V15.7503H13.746ZM38.6359 19.7036V39.9719H33.8482V31.514H27.4408V39.9719H22.6531V19.7036H27.4408V27.7269H33.8482V19.7036H38.6359ZM60.2719 44.5935H55.8348V39.9555H45.0743V44.5935H40.6372V36.1776H42.1381C43.8235 32.7904 44.1576 26.3848 44.1576 21.431V19.6963H58.1355V36.1776H60.2719V44.5935ZM53.3478 23.4907H48.2771V24.0914C48.2771 27.5936 47.9119 33.1154 46.5752 36.1849H53.3478V23.4907ZM71.0306 40.3554C64.9099 40.3554 61.4387 36.9353 61.4387 29.8798C61.4387 23.7573 64.2252 19.2891 70.0646 19.2891C74.8524 19.2891 77.9547 21.9568 77.9547 28.9978V31.5323H66.3944C66.5934 34.9195 67.9282 36.5701 71.4323 36.5701C73.7677 36.5701 76.2693 35.6864 77.7538 34.6693V38.5879C76.3533 39.5556 74.1 40.3554 71.0306 40.3554ZM66.3944 27.9935H73.083V27.5955C73.083 25.061 72.3526 23.0926 69.9788 23.0926C67.6945 23.0725 66.5277 24.7743 66.3944 27.9935ZM85.978 30.0131V39.9719H81.1739V19.7036H85.978V29.0453L92.7597 19.7036H97.5986L90.826 29.0453L98.5152 39.9555H93.0683L85.978 30.0131ZM98.2395 29.8469C98.2395 23.6733 101.426 19.2873 107.552 19.2873C109.926 19.2873 111.706 19.6871 112.707 20.2532V24.3251C111.739 23.7244 109.92 23.0725 108.069 23.0725C104.932 23.0725 103.197 25.3258 103.197 29.73C103.197 33.917 104.616 36.5848 108.036 36.5848C110.054 36.5848 111.505 36.068 112.707 35.2171V39.121C111.538 39.9719 109.968 40.3718 107.751 40.3718C101.342 40.3554 98.2377 36.6194 98.2377 29.8469H98.2395Z" fill="#21201F"/>
</g>
</svg>
